<svg width="51" height="51" viewBox="0 0 51 51" fill="none" xmlns="http://www.w3.org/2000/svg">
<circle cx="25.4187" cy="25.5471" r="19.8264" fill="#438E4D"/>
<circle cx="25.418" cy="25.5471" r="24.5" stroke="#438E4D"/>
<g clip-path="url(#clip0_2025_1151)">
<path d="M32.807 19.2138H18.0292C17.7492 19.2138 17.4808 19.325 17.2828 19.5229C17.0848 19.7209 16.9736 19.9894 16.9736 20.2693V30.8249C16.9736 31.1048 17.0848 31.3733 17.2828 31.5713C17.4808 31.7692 17.7492 31.8804 18.0292 31.8804H25.9459L26.2467 31.511L26.7375 30.9093L26.69 30.8249H18.0292V20.2693H32.807V24.7871C33.208 25.0466 33.5644 25.3692 33.8625 25.7424V20.2693C33.8625 19.9894 33.7513 19.7209 33.5534 19.5229C33.3554 19.325 33.0869 19.2138 32.807 19.2138Z" fill="white"/>
<path d="M19.6123 22.3804H28.5845V23.2249H19.6123V22.3804Z" fill="white"/>
<path d="M19.6123 24.4915H25.4179V25.336H19.6123V24.4915Z" fill="white"/>
<path d="M19.6123 28.186H24.8901V29.0304H19.6123V28.186Z" fill="white"/>
<path d="M30.4107 25.1407C29.7353 25.1353 29.074 25.3338 28.5132 25.7103C27.9524 26.0867 27.5183 26.6235 27.2674 27.2506C27.0166 27.8777 26.9608 28.5659 27.1072 29.2252C27.2537 29.8846 27.5957 30.4844 28.0884 30.9463L27.0646 32.1971L27.5396 34.1024L29.4712 31.7485C30.0827 31.9293 30.7334 31.9293 31.3448 31.7485L33.2765 34.1024L33.7515 32.1971L32.7276 30.9463C33.2204 30.4844 33.5623 29.8846 33.7088 29.2252C33.8553 28.5659 33.7995 27.8777 33.5486 27.2506C33.2978 26.6235 32.8636 26.0867 32.3028 25.7103C31.7421 25.3338 31.0808 25.1353 30.4054 25.1407H30.4107ZM30.4107 30.7774C29.9622 30.7711 29.5255 30.6324 29.1556 30.3787C28.7858 30.125 28.4991 29.7676 28.3318 29.3514C28.1645 28.9353 28.1239 28.4789 28.2152 28.0398C28.3066 27.6006 28.5257 27.1983 28.845 26.8833C29.1644 26.5683 29.5697 26.3548 30.0101 26.2696C30.4504 26.1844 30.9062 26.2312 31.32 26.4043C31.7338 26.5773 32.0872 26.8689 32.3358 27.2422C32.5844 27.6156 32.717 28.0541 32.7171 28.5026C32.7115 29.1097 32.4657 29.6898 32.0335 30.1161C31.6012 30.5424 31.0177 30.7802 30.4107 30.7774Z" fill="white"/>
</g>
<defs>
<clipPath id="clip0_2025_1151">
<rect width="19" height="19" fill="white" transform="translate(15.918 16.0471)"/>
</clipPath>
</defs>
</svg>
