<svg width="20" height="21" viewBox="0 0 20 21" fill="none" xmlns="http://www.w3.org/2000/svg">
<g clip-path="url(#clip0_2001_810)">
<path d="M3.1366 8.20761H0.909362C0.407234 8.20761 0 8.61485 0 9.11697V19.117C0 19.6187 0.407234 20.0259 0.909362 20.0259H3.1366C3.63872 20.0259 4.04553 19.6187 4.04553 19.117V9.11697C4.04553 8.61485 3.63872 8.20761 3.1366 8.20761Z" fill="#FAFAFA"/>
<path d="M8.45495 10.9344H6.22772C5.72517 10.9344 5.31836 11.3417 5.31836 11.8438V19.1161C5.31836 19.6187 5.72517 20.0255 6.22772 20.0255H8.45495C8.95708 20.0255 9.36389 19.6182 9.36389 19.1161V11.8438C9.36389 11.3417 8.95708 10.9344 8.45495 10.9344Z" fill="#FAFAFA"/>
<path d="M13.7724 10.9344H11.5452C11.043 10.9344 10.6362 11.3417 10.6362 11.8438V19.1161C10.6362 19.6187 11.043 20.0255 11.5452 20.0255H13.7724C14.275 20.0255 14.6818 19.6182 14.6818 19.1161V11.8438C14.6818 11.3417 14.275 10.9344 13.7724 10.9344Z" fill="#FAFAFA"/>
<path d="M19.0908 8.20761H16.8635C16.3614 8.20761 15.9546 8.61485 15.9546 9.11697V19.117C15.9546 19.6191 16.3614 20.0259 16.8635 20.0259H19.0908C19.5929 20.0259 20.0001 19.6182 20.0001 19.117V9.11697C20.0001 8.61485 19.5929 8.20761 19.0908 8.20761Z" fill="#FAFAFA"/>
<path d="M10.2651 5.5025V7.1391C10.7605 7.10633 11.2826 6.87399 11.2826 6.32889C11.2826 5.76633 10.7102 5.60165 10.2651 5.5025Z" fill="#FAFAFA"/>
<path d="M8.8418 3.54377C8.8418 3.95738 9.14946 4.19653 9.76946 4.32079V2.84036C9.20605 2.85696 8.8418 3.18802 8.8418 3.54377Z" fill="#FAFAFA"/>
<path d="M10 0.0259094C7.24298 0.0259094 5 2.26931 5 5.02591C5 7.78165 7.24298 10.0251 10 10.0251C12.757 10.0251 15 7.78165 15 5.02591C15 2.26931 12.757 0.0259094 10 0.0259094ZM10.2651 7.98293V8.49485C10.2651 8.6357 10.157 8.77612 10.0157 8.77612C9.87617 8.77612 9.76936 8.6357 9.76936 8.49485V7.98293C8.37234 7.94889 7.67745 7.11399 7.67745 6.4608C7.67745 6.13102 7.87702 5.94038 8.18936 5.94038C9.11532 5.94038 8.39532 7.08123 9.76936 7.13868V5.41102C8.54383 5.18846 7.8017 4.65102 7.8017 3.73357C7.8017 2.60974 8.73617 2.03016 9.76936 1.99782V1.55697C9.76936 1.41612 9.87617 1.2757 10.0157 1.2757C10.157 1.2757 10.2651 1.41612 10.2651 1.55697V1.99782C10.9094 2.01485 12.2323 2.4191 12.2323 3.22974C12.2323 3.55187 11.9915 3.74165 11.7102 3.74165C11.1723 3.74165 11.18 2.85782 10.2651 2.8408V4.41144C11.3562 4.64336 12.3226 4.96548 12.3226 6.23868C12.3226 7.34591 11.4962 7.90761 10.2651 7.98293Z" fill="#FAFAFA"/>
</g>
<defs>
<clipPath id="clip0_2001_810">
<rect width="20" height="20" fill="white" transform="translate(0 0.0259094)"/>
</clipPath>
</defs>
</svg>
