<svg width="14" height="15" viewBox="0 0 14 15" fill="none" xmlns="http://www.w3.org/2000/svg">
<path d="M7 0.836273C5.61553 0.836273 4.26216 1.24682 3.11101 2.01599C1.95987 2.78516 1.06266 3.87841 0.532846 5.15749C0.00303299 6.43657 -0.13559 7.84404 0.134506 9.20191C0.404603 10.5598 1.07129 11.8071 2.05026 12.786C3.02922 13.765 4.2765 14.4317 5.63437 14.7018C6.99224 14.9719 8.3997 14.8332 9.67879 14.3034C10.9579 13.7736 12.0511 12.8764 12.8203 11.7253C13.5895 10.5741 14 9.22074 14 7.83627C14 5.97976 13.2625 4.19928 11.9497 2.88653C10.637 1.57377 8.85652 0.836273 7 0.836273ZM10.962 10.8043L9.975 11.7913L7 8.82327L4.032 11.7983L3.038 10.8043L6.013 7.83627L3.038 4.86827L4.032 3.87427L7 6.84927L9.968 3.88127L10.955 4.86827L7.987 7.83627L10.962 10.8043Z" fill="#FF142C"/>
</svg>
