<svg width="16" height="17" viewBox="0 0 16 17" fill="none" xmlns="http://www.w3.org/2000/svg">
<path d="M8.17526 6.59679C7.63911 6.59679 7.13702 6.80479 6.75687 7.18494C6.37852 7.56509 6.16872 8.06718 6.16872 8.60333C6.16872 9.13948 6.37852 9.64157 6.75687 10.0217C7.13702 10.4001 7.63911 10.6099 8.17526 10.6099C8.71142 10.6099 9.2135 10.4001 9.59365 10.0217C9.97201 9.64157 10.1818 9.13948 10.1818 8.60333C10.1818 8.06718 9.97201 7.56509 9.59365 7.18494C9.40797 6.99784 9.18697 6.84949 8.94348 6.74853C8.69999 6.64756 8.43886 6.59598 8.17526 6.59679ZM15.5685 10.8197L14.3957 9.8173C14.4513 9.4766 14.48 9.12873 14.48 8.78265C14.48 8.43657 14.4513 8.0869 14.3957 7.74799L15.5685 6.74562C15.657 6.66978 15.7205 6.56877 15.7502 6.45602C15.78 6.34327 15.7748 6.22412 15.7352 6.11443L15.7191 6.0678C15.3963 5.16529 14.9127 4.32872 14.2917 3.59862L14.2594 3.56097C14.184 3.4723 14.0835 3.40856 13.9712 3.37815C13.8588 3.34774 13.7399 3.35209 13.6301 3.39062L12.174 3.90884C11.6361 3.46772 11.0371 3.11985 10.388 2.87777L10.1065 1.35538C10.0853 1.24069 10.0296 1.13519 9.94699 1.05287C9.86435 0.970556 9.75863 0.915334 9.64386 0.894539L9.59544 0.885573C8.663 0.717016 7.68035 0.717016 6.74791 0.885573L6.69949 0.894539C6.58472 0.915334 6.479 0.970556 6.39636 1.05287C6.31373 1.13519 6.2581 1.24069 6.23686 1.35538L5.95354 2.88495C5.31056 3.12894 4.71158 3.47597 4.1801 3.91243L2.7133 3.39062C2.6035 3.35178 2.48447 3.34728 2.37205 3.37771C2.25963 3.40813 2.15913 3.47205 2.0839 3.56097L2.05162 3.59862C1.4317 4.32949 0.94823 5.16585 0.624268 6.0678L0.608129 6.11443C0.527437 6.33857 0.593784 6.58961 0.774893 6.74562L1.96196 7.75875C1.90638 8.09587 1.87948 8.44015 1.87948 8.78085C1.87948 9.12514 1.90638 9.46943 1.96196 9.80295L0.778479 10.8161C0.68989 10.8919 0.626485 10.9929 0.596696 11.1057C0.566907 11.2184 0.572146 11.3376 0.611716 11.4473L0.627854 11.4939C0.952416 12.3959 1.43119 13.2297 2.05521 13.9631L2.08749 14.0007C2.1629 14.0894 2.2634 14.1531 2.37576 14.1836C2.48811 14.214 2.60705 14.2096 2.71688 14.1711L4.18369 13.6493C4.71805 14.0886 5.31338 14.4365 5.95712 14.6768L6.24044 16.2063C6.26168 16.321 6.31732 16.4265 6.39995 16.5088C6.48258 16.5911 6.58831 16.6464 6.70308 16.6672L6.75149 16.6761C7.69311 16.8456 8.65741 16.8456 9.59903 16.6761L9.64744 16.6672C9.76221 16.6464 9.86794 16.5911 9.95057 16.5088C10.0332 16.4265 10.0888 16.321 10.1101 16.2063L10.3916 14.6839C11.0407 14.4401 11.6396 14.094 12.1776 13.6529L13.6336 14.1711C13.7434 14.2099 13.8625 14.2144 13.9749 14.184C14.0873 14.1536 14.1878 14.0897 14.263 14.0007L14.2953 13.9631C14.9193 13.2261 15.3981 12.3959 15.7227 11.4939L15.7388 11.4473C15.8159 11.2249 15.7496 10.9757 15.5685 10.8197ZM8.17526 11.7557C6.4341 11.7557 5.02289 10.3445 5.02289 8.60333C5.02289 6.86217 6.4341 5.45096 8.17526 5.45096C9.91642 5.45096 11.3276 6.86217 11.3276 8.60333C11.3276 10.3445 9.91642 11.7557 8.17526 11.7557Z" fill="#898384"/>
</svg>
