<svg class="text-white hover:text-[#66C673]" width="20" height="21" viewBox="0 0 20 21"  fill="currentColor" xmlns="http://www.w3.org/2000/svg">
<g clip-path="url(#clip0_2001_801)">
<path d="M19.4603 8.72495C19.4598 8.72449 19.4594 8.72403 19.4589 8.72357L11.3005 0.56546C10.9527 0.21756 10.4904 0.0259094 9.99862 0.0259094C9.50682 0.0259094 9.04448 0.217407 8.69658 0.565308L0.54244 8.7193C0.539693 8.72205 0.536947 8.72495 0.5342 8.72769C-0.179911 9.44592 -0.17869 10.6112 0.53771 11.3276C0.865011 11.6551 1.29729 11.8448 1.75948 11.8646C1.77825 11.8664 1.79717 11.8673 1.81624 11.8673H2.14141V17.8712C2.14141 19.0593 3.10805 20.0259 4.29641 20.0259H7.48824C7.81173 20.0259 8.07418 19.7636 8.07418 19.44V14.7329C8.07418 14.1908 8.51516 13.7498 9.0573 13.7498H10.9399C11.4821 13.7498 11.9231 14.1908 11.9231 14.7329V19.44C11.9231 19.7636 12.1854 20.0259 12.509 20.0259H15.7008C16.8892 20.0259 17.8558 19.0593 17.8558 17.8712V11.8673H18.1573C18.649 11.8673 19.1113 11.6758 19.4594 11.3279C20.1765 10.6103 20.1768 9.44302 19.4603 8.72495Z" fill="white"/>
</g>
<defs>
<clipPath id="clip0_2001_801">
<rect width="20" height="20" fill="white" transform="translate(0 0.0259094)"/>
</clipPath>
</defs>
</svg>
