<svg width="20" height="21" viewBox="0 0 20 21" fill="none" xmlns="http://www.w3.org/2000/svg">
<g clip-path="url(#clip0_2001_855)">
<path d="M3.84916 13.3602C4.05027 13.4798 4.22295 13.6356 4.36075 13.8156H6.96488V11.2904L5.73007 10.5248C5.45506 10.3543 5.37034 9.99314 5.54083 9.71813C5.71136 9.44319 6.07238 9.35847 6.34751 9.52889L7.55076 10.2749L8.59957 9.62466C6.50766 6.75618 6.98808 2.69168 9.77262 0.397596C5.18587 -1.13898 0.374325 2.27672 0.352608 7.18239C0.341281 9.78398 1.72635 12.0965 3.84916 13.3602Z" fill="#FAFAFA"/>
<path d="M4.72705 14.9873H10.2734V16.3153H4.72705V14.9873Z" fill="#FAFAFA"/>
<path d="M8.13672 11.2904V13.8156H10.6321C10.7647 13.6407 10.93 13.4909 11.1223 13.3776C11.6549 13.0642 12.1437 12.6819 12.577 12.2443C11.3531 11.9687 10.254 11.3601 9.37996 10.519C9.34664 10.5406 9.10647 10.6892 8.13672 11.2904Z" fill="#FAFAFA"/>
<path d="M14.0625 0.0277939C10.9903 0.0277939 8.47705 2.5665 8.47705 5.65226C8.47705 8.5548 10.7052 10.9583 13.5621 11.2148C16.8683 11.5102 19.6479 8.88934 19.6479 5.65226C19.6479 2.57248 17.1423 0.0277939 14.0625 0.0277939ZM14.6491 8.19171V8.31416C14.6491 8.63772 14.3868 8.90004 14.0632 8.90004C13.7397 8.90004 13.4774 8.63772 13.4774 8.31416V8.25795C13.2074 8.21062 12.9608 8.10961 12.6492 7.90576C12.3784 7.72863 12.3026 7.36554 12.4797 7.09474C12.6568 6.82391 13.0199 6.74806 13.2907 6.92515C13.5763 7.11201 13.6688 7.12658 14.0593 7.12388C14.4362 7.12138 14.5864 6.82551 14.6157 6.65111C14.642 6.49453 14.6125 6.28634 14.3221 6.18374C13.8356 6.01176 13.3368 5.81444 12.9835 5.53727C12.1788 4.90616 12.4217 3.4647 13.4774 3.0811V2.99626C13.4774 2.6727 13.7397 2.41038 14.0633 2.41038C14.3868 2.41038 14.6492 2.6727 14.6492 2.99626V3.02876C14.9379 3.11024 15.1703 3.25761 15.33 3.42001C15.5569 3.65069 15.5538 4.02164 15.3231 4.24853C15.0925 4.4753 14.7219 4.4723 14.495 4.24201C14.4623 4.21009 14.2818 4.0596 13.8911 4.17729C13.7351 4.22427 13.6932 4.38605 13.684 4.43453C13.665 4.53569 13.6921 4.60389 13.7066 4.61529C13.9276 4.78863 14.3392 4.94694 14.7126 5.07896C16.2568 5.62477 16.0687 7.67852 14.6491 8.19171Z" fill="#FAFAFA"/>
<path d="M5.66455 18.1901C5.66455 19.2024 6.48807 20.0259 7.50032 20.0259C8.51257 20.0259 9.33608 19.2024 9.33608 18.1901V17.4871H5.66455V18.1901Z" fill="#FAFAFA"/>
</g>
<defs>
<clipPath id="clip0_2001_855">
<rect width="20" height="20" fill="white" transform="translate(0 0.0259094)"/>
</clipPath>
</defs>
</svg>
