<svg width="20" height="21" viewBox="0 0 20 21" fill="none" xmlns="http://www.w3.org/2000/svg">
<g clip-path="url(#clip0_2001_827)">
<path d="M11.5941 12.2957C14.95 12.2957 17.6803 9.54356 17.6803 6.16081C17.6803 2.77806 14.95 0.0259094 11.5941 0.0259094C8.2381 0.0259094 5.50781 2.77802 5.50781 6.16077C5.50781 9.54352 8.2381 12.2957 11.5941 12.2957ZM9.63836 8.07518C9.8154 7.80456 10.1784 7.72859 10.449 7.90571C10.8433 8.16364 10.9921 8.18742 11.5124 8.18378C12.0203 8.18043 12.315 7.80186 12.3739 7.45153C12.4026 7.28112 12.4135 6.865 11.8978 6.68269C11.2929 6.46883 10.6738 6.2244 10.2432 5.8866C9.81248 5.54879 9.61525 4.96562 9.7285 4.36477C9.85128 3.7134 10.3057 3.19488 10.9144 3.01155C10.9199 3.00991 10.9253 3.00859 10.9308 3.00695V2.78497C10.9308 2.46157 11.1929 2.19938 11.5163 2.19938C11.8397 2.19938 12.1019 2.46157 12.1019 2.78497V2.97005C12.4997 3.065 12.7774 3.24696 12.8902 3.33125C13.1492 3.52492 13.2023 3.89185 13.0086 4.15091C12.815 4.40998 12.4481 4.46299 12.189 4.26928C12.069 4.17957 11.7373 3.98671 11.2521 4.13292C10.9687 4.21833 10.8952 4.49801 10.8794 4.58167C10.8484 4.74607 10.8832 4.90015 10.9659 4.96504C11.2645 5.19919 11.8019 5.40653 12.2881 5.57842C13.1848 5.89538 13.6835 6.72614 13.5289 7.64567C13.453 8.09684 13.2261 8.51542 12.8897 8.82442C12.6607 9.03492 12.394 9.18499 12.1019 9.27068V9.53657C12.1019 9.85997 11.8397 10.1222 11.5163 10.1222C11.1929 10.1222 10.9308 9.85997 10.9308 9.53657V9.32908C10.5521 9.28317 10.2343 9.16476 9.80779 8.88579C9.53721 8.70875 9.46132 8.3458 9.63836 8.07518Z" fill="#FAFAFA"/>
<path d="M2.21964 14.2633H0.884417C0.561016 14.2633 0.298828 14.5255 0.298828 14.8489V19.4395C0.298828 19.7629 0.561016 20.0251 0.884417 20.0251H2.21968V14.2633H2.21964Z" fill="#FAFAFA"/>
<path d="M19.5295 14.2224C18.4319 13.1248 16.646 13.1248 15.5485 14.2224L13.7943 15.9766L13.0753 16.6956C12.7847 16.9861 12.3906 17.1494 11.9797 17.1494H8.48353C8.16778 17.1494 7.89607 16.9067 7.8812 16.5913C7.86535 16.2546 8.13366 15.9766 8.46694 15.9766H12.0205C12.735 15.9766 13.3547 15.4679 13.4776 14.764C13.5058 14.6024 13.5205 14.4362 13.5205 14.2666C13.5205 13.9427 13.258 13.6798 12.9341 13.6798H10.9869C10.3506 13.6798 9.7395 13.3911 9.0925 13.0854C8.41389 12.7649 7.71219 12.4334 6.89171 12.3788C6.17409 12.331 5.45483 12.4096 4.7538 12.612C4.00319 12.8287 3.46363 13.4956 3.3982 14.2656C3.3957 14.2654 3.39316 14.2653 3.39062 14.2652V20.0231L13.4794 20.0259C14.1731 20.0259 14.8253 19.7557 15.3158 19.2652L19.5293 15.0517C19.7585 14.8228 19.7585 14.4514 19.5295 14.2224Z" fill="#FAFAFA"/>
</g>
<defs>
<clipPath id="clip0_2001_827">
<rect width="20" height="20" fill="white" transform="translate(0 0.0259094)"/>
</clipPath>
</defs>
</svg>
