<svg width="20" height="21" viewBox="0 0 20 21" fill="none" xmlns="http://www.w3.org/2000/svg">
<g clip-path="url(#clip0_2001_823)">
<path d="M10 0.859238L2.5 4.19257V9.19257C2.5 13.8176 5.7 18.1426 10 19.1926C14.3 18.1426 17.5 13.8176 17.5 9.19257V4.19257L10 0.859238ZM11.9 11.7592L10.2167 13.4426C9.71667 13.9426 9.05833 14.1926 8.4 14.1926C7.74167 14.1926 7.08333 13.9426 6.58333 13.4426C6.10295 12.96 5.83326 12.3068 5.83326 11.6259C5.83326 10.945 6.10295 10.2918 6.58333 9.80924L7.625 8.7759L7.61667 9.24257C7.61667 9.60924 7.675 9.98424 7.8 10.3342L7.84167 10.4426L7.53333 10.7509C7.3 10.9842 7.16667 11.3009 7.16667 11.6259C7.16667 11.9592 7.3 12.2676 7.53333 12.5009C8 12.9676 8.80833 12.9676 9.275 12.5009L10.95 10.8259C11.1917 10.5842 11.3167 10.2759 11.3167 9.9509C11.3167 9.60924 11.1917 9.30924 10.9583 9.0759C10.8299 8.95059 10.7552 8.78027 10.75 8.6009C10.75 8.4259 10.8333 8.25924 10.9583 8.13424C11.2083 7.8759 11.6667 7.88424 11.9 8.13424C12.3833 8.61757 12.65 9.25924 12.65 9.94257C12.65 10.6342 12.3833 11.2759 11.9 11.7592ZM14.25 9.40924L13.2083 10.4426L13.2167 9.9759C13.2167 9.60924 13.1583 9.24257 13.0333 8.89257L13 8.7759L13.3 8.46757C13.5417 8.23424 13.6667 7.94257 13.6667 7.59257C13.6667 7.26757 13.5417 6.95924 13.3083 6.7259C12.8333 6.2509 12.025 6.2509 11.5583 6.7259L9.88333 8.4009C9.65 8.63424 9.51667 8.94257 9.51667 9.2759C9.51667 9.60924 9.64167 9.90924 9.88333 10.1426C10 10.2676 10.0833 10.4426 10.0833 10.6176C10.0833 10.8009 10 10.9676 9.875 11.0926C9.75 11.2259 9.58333 11.2759 9.40833 11.2759C9.24167 11.2759 9.06667 11.2176 8.93333 11.0926C8.69185 10.8556 8.50002 10.573 8.36907 10.261C8.23812 9.94911 8.17068 9.6142 8.17068 9.2759C8.17068 8.93761 8.23812 8.6027 8.36907 8.29077C8.50002 7.97885 8.69185 7.69616 8.93333 7.45924L10.6167 5.7759C11.0992 5.29552 11.7524 5.02583 12.4333 5.02583C13.1142 5.02583 13.7674 5.29552 14.25 5.7759C14.7333 6.2759 15 6.90924 15 7.59257C15 8.2759 14.7333 8.92591 14.25 9.40924Z" fill="#FAFAFA"/>
</g>
<defs>
<clipPath id="clip0_2001_823">
<rect width="20" height="20" fill="white" transform="translate(0 0.0259094)"/>
</clipPath>
</defs>
</svg>
