<svg width="20" height="21" viewBox="0 0 20 21" fill="none" xmlns="http://www.w3.org/2000/svg">
<path fill-rule="evenodd" clip-rule="evenodd" d="M2 8.77368C2 8.50847 2.10536 8.25411 2.29289 8.06658C2.48043 7.87904 2.73478 7.77368 3 7.77368H13.308C13.5732 7.77368 13.8276 7.87904 14.0151 8.06658C14.2026 8.25411 14.308 8.50847 14.308 8.77368C14.308 9.0389 14.2026 9.29325 14.0151 9.48079C13.8276 9.66832 13.5732 9.77368 13.308 9.77368H3C2.73478 9.77368 2.48043 9.66832 2.29289 9.48079C2.10536 9.29325 2 9.0389 2 8.77368ZM2 4.77368C2 4.50847 2.10536 4.25411 2.29289 4.06657C2.48043 3.87904 2.73478 3.77368 3 3.77368H17C17.2652 3.77368 17.5196 3.87904 17.7071 4.06657C17.8946 4.25411 18 4.50847 18 4.77368C18 5.0389 17.8946 5.29325 17.7071 5.48079C17.5196 5.66832 17.2652 5.77368 17 5.77368H3C2.73478 5.77368 2.48043 5.66832 2.29289 5.48079C2.10536 5.29325 2 5.0389 2 4.77368ZM2 12.7737C2 12.5085 2.10536 12.2541 2.29289 12.0666C2.48043 11.879 2.73478 11.7737 3 11.7737H17C17.2652 11.7737 17.5196 11.879 17.7071 12.0666C17.8946 12.2541 18 12.5085 18 12.7737C18 13.0389 17.8946 13.2933 17.7071 13.4808C17.5196 13.6683 17.2652 13.7737 17 13.7737H3C2.73478 13.7737 2.48043 13.6683 2.29289 13.4808C2.10536 13.2933 2 13.0389 2 12.7737ZM2 16.7737C2 16.5085 2.10536 16.2541 2.29289 16.0666C2.48043 15.879 2.73478 15.7737 3 15.7737H13.308C13.5732 15.7737 13.8276 15.879 14.0151 16.0666C14.2026 16.2541 14.308 16.5085 14.308 16.7737C14.308 17.0389 14.2026 17.2933 14.0151 17.4808C13.8276 17.6683 13.5732 17.7737 13.308 17.7737H3C2.73478 17.7737 2.48043 17.6683 2.29289 17.4808C2.10536 17.2933 2 17.0389 2 16.7737Z" fill="#002819"/>
</svg>
