<svg width="26" height="24" viewBox="0 0 26 24" fill="none" xmlns="http://www.w3.org/2000/svg">
<g clip-path="url(#clip0_2062_935)">
<path d="M12.7219 2.4408C10.7795 2.4408 8.9166 3.15593 7.5431 4.42887C6.16959 5.70182 5.39797 7.4283 5.39797 9.22851V12.6495C5.39812 12.7999 5.36051 12.9483 5.28811 13.083L3.49166 16.4119C3.4039 16.5745 3.36246 16.7552 3.37128 16.9369C3.3801 17.1185 3.43887 17.2951 3.54203 17.4497C3.64518 17.6044 3.78929 17.7321 3.96067 17.8206C4.13204 17.9091 4.32499 17.9556 4.52119 17.9556H20.9226C21.1188 17.9556 21.3118 17.9091 21.4831 17.8206C21.6545 17.7321 21.7986 17.6044 21.9018 17.4497C22.0049 17.2951 22.0637 17.1185 22.0725 16.9369C22.0813 16.7552 22.0399 16.5745 21.9521 16.4119L20.1567 13.083C20.084 12.9484 20.046 12.8 20.0458 12.6495V9.22851C20.0458 7.4283 19.2742 5.70182 17.9007 4.42887C16.5272 3.15593 14.6643 2.4408 12.7219 2.4408ZM12.7219 20.8646C12.0725 20.8649 11.439 20.6786 10.9087 20.3312C10.3784 19.9839 9.97739 19.4927 9.76094 18.9253H15.6829C15.4664 19.4927 15.0654 19.9839 14.5351 20.3312C14.0048 20.6786 13.3713 20.8649 12.7219 20.8646Z" fill="#898384"/>
</g>
<defs>
<clipPath id="clip0_2062_935">
<rect width="25.1106" height="23.2722" fill="white" transform="translate(0.166504 0.501465)"/>
</clipPath>
</defs>
</svg>
