<svg width="43" height="43" viewBox="0 0 43 43" fill="none" xmlns="http://www.w3.org/2000/svg">
<circle cx="21.8606" cy="21.4355" r="16.5657" fill="#CCCBCB"/>
<circle cx="21.8601" cy="21.4355" r="20.3884" stroke="#CCCBCB"/>
<path d="M28.0733 20.9134L19.0233 16.0434C18.2633 15.6334 17.3833 16.3434 17.6233 17.1734L18.8633 21.5134C18.9133 21.6934 18.9133 21.8734 18.8633 22.0534L17.6233 26.3934C17.3833 27.2234 18.2633 27.9334 19.0233 27.5234L28.0733 22.6534C28.2277 22.569 28.3565 22.4447 28.4462 22.2934C28.536 22.142 28.5834 21.9693 28.5834 21.7934C28.5834 21.6175 28.536 21.4448 28.4462 21.2934C28.3565 21.1421 28.2277 21.0178 28.0733 20.9334V20.9134Z" fill="#726C6C"/>
</svg>
