<svg width="20" height="20" viewBox="0 0 20 20" fill="none" xmlns="http://www.w3.org/2000/svg">
<path d="M19.3359 17.9846L14.7344 13.3831C15.875 11.9924 16.5625 10.2112 16.5625 8.26978C16.5625 3.81665 12.9492 0.203369 8.49609 0.203369C4.03906 0.203369 0.429688 3.81665 0.429688 8.26978C0.429688 12.7229 4.03906 16.3362 8.49609 16.3362C10.4375 16.3362 12.2148 15.6526 13.6055 14.512L18.207 19.1096C18.5195 19.4221 19.0234 19.4221 19.3359 19.1096C19.6484 18.801 19.6484 18.2932 19.3359 17.9846ZM8.49609 14.7307C4.92969 14.7307 2.03125 11.8323 2.03125 8.26978C2.03125 4.70728 4.92969 1.80493 8.49609 1.80493C12.0586 1.80493 14.9609 4.70728 14.9609 8.26978C14.9609 11.8323 12.0586 14.7307 8.49609 14.7307Z" fill="#898384"/>
</svg>
