<svg width="20" height="21" viewBox="0 0 20 21" fill="none" xmlns="http://www.w3.org/2000/svg">
<g clip-path="url(#clip0_2001_834)">
<path d="M19.8282 1.02626L18.9996 0.197625C18.8269 0.0248125 18.5651 -0.0225311 18.3429 0.0782499L13.8923 2.04297C13.7172 2.12266 13.5925 2.28293 13.5582 2.47184C13.5241 2.66125 13.5844 2.855 13.7204 2.99098L17.0349 6.30546C17.1709 6.44144 17.3646 6.50171 17.554 6.46769C17.7429 6.43335 17.9032 6.30871 17.9829 6.13351L19.9476 1.68289C20.0483 1.46075 20.001 1.19899 19.8282 1.02626Z" fill="#FAFAFA"/>
<path d="M3.78516 12.9263L0.514071 16.1974C-0.171357 16.8828 -0.171357 17.9978 0.514071 18.6832L1.34266 19.5118C2.02809 20.1972 3.14313 20.1972 3.82852 19.5118L7.09961 16.2407L3.78516 12.9263ZM3.41996 17.4428C3.19094 17.6718 2.82028 17.6718 2.59129 17.4428C2.36235 17.2137 2.36235 16.8431 2.59129 16.6142L4.20516 15.0003C4.43418 14.7712 4.8048 14.7712 5.03375 15.0003C5.26277 15.2293 5.26277 15.5999 5.03375 15.8289L3.41996 17.4428Z" fill="#FAFAFA"/>
<path d="M9.58533 13.7549L6.27084 10.4404C5.81401 9.98355 5.07042 9.98355 4.61362 10.4404C4.15679 10.8972 4.15679 11.6408 4.61362 12.0976L7.92811 15.4121C8.38486 15.8689 9.1285 15.8689 9.58533 15.4121C10.0422 14.9554 10.0422 14.2117 9.58533 13.7549Z" fill="#FAFAFA"/>
<path d="M15.3778 6.30542L13.7205 4.64816L9.17117 9.19745C8.71355 8.73983 7.97164 8.73983 7.51394 9.19745L7.09961 9.61179L10.4141 12.9263L10.8284 12.5119C11.286 12.0542 11.286 11.3124 10.8284 10.8547L15.3778 6.30542Z" fill="#FAFAFA"/>
<path d="M18.9717 14.0242C18.0205 13.073 16.8767 12.8685 15.5643 13.103L12.9005 10.4395L12.2643 11.0756C12.4738 11.8627 12.2702 12.7269 11.6566 13.3404L11.2432 13.7539L13.0764 15.5869C12.8916 16.6213 12.9089 17.4986 13.5513 18.4502C14.2926 19.5486 15.5901 20.173 16.9494 19.9859C17.1741 19.955 17.3618 19.7992 17.434 19.5842C17.5063 19.3692 17.4506 19.1318 17.2902 18.9713L16.4844 18.1669V16.5099H18.1432L18.9445 17.3113C19.1052 17.472 19.3433 17.5273 19.5584 17.4545C19.7737 17.3817 19.929 17.1931 19.9592 16.9679C20.1023 15.9021 19.7537 14.8058 18.9717 14.0242Z" fill="#FAFAFA"/>
<path d="M6.91569 4.4518C7.14823 3.15309 6.95995 2.01059 5.99448 1.04442C5.33757 0.387549 4.45866 0.0259094 3.51968 0.0259094C3.36159 0.0259094 3.20519 0.0362219 3.05081 0.0566516C2.82538 0.0865734 2.63667 0.24212 2.56378 0.457549C2.49089 0.6729 2.54656 0.911025 2.70734 1.07181L3.51656 1.87298V3.54149H1.85121L1.048 2.72704C0.887575 2.56661 0.649958 2.5111 0.434881 2.58348C0.219881 2.65587 0.0643736 2.84376 0.0334752 3.06856C-0.14504 4.36844 0.418201 5.68902 1.56738 6.4648C2.52253 7.10832 3.40511 7.12426 4.43175 6.93918L6.27241 8.78285L6.68604 8.36922C7.29956 7.7557 8.16366 7.55215 8.95076 7.76152L9.58662 7.12566L6.91569 4.4518Z" fill="#FAFAFA"/>
</g>
<defs>
<clipPath id="clip0_2001_834">
<rect width="20" height="20" fill="white" transform="translate(0 0.0259094)"/>
</clipPath>
</defs>
</svg>
