<svg width="51" height="51" viewBox="0 0 51 51" fill="none" xmlns="http://www.w3.org/2000/svg">
<path d="M34.25 13.8969H34.2792M8 28.4803L15.7117 20.7686C16.0394 20.4405 16.4286 20.1803 16.857 20.0027C17.2854 19.8252 17.7446 19.7338 18.2083 19.7338C18.6721 19.7338 19.1313 19.8252 19.5597 20.0027C19.988 20.1803 20.3772 20.4405 20.705 20.7686L31.3333 31.3969" stroke="#438E4D" stroke-width="3" stroke-linecap="round" stroke-linejoin="round"/>
<path d="M28.417 28.4803L33.212 23.6853C33.5397 23.3572 33.9289 23.0969 34.3573 22.9194C34.7857 22.7418 35.2449 22.6504 35.7087 22.6504C36.1724 22.6504 36.6316 22.7418 37.06 22.9194C37.4884 23.0969 37.8776 23.3572 38.2053 23.6853L43.0003 28.4803M2.16699 13.8969V8.0636C2.16699 6.5165 2.78157 5.03277 3.87554 3.93881C4.9695 2.84485 6.45323 2.23027 8.00033 2.23027H13.8337M2.16699 37.2303V43.0636C2.16699 44.6107 2.78157 46.0944 3.87554 47.1884C4.9695 48.2824 6.45323 48.8969 8.00033 48.8969H13.8337M37.167 2.23027H43.0003C44.5474 2.23027 46.0312 2.84485 47.1251 3.93881C48.2191 5.03277 48.8337 6.5165 48.8337 8.0636V13.8969M37.167 48.8969H43.0003C44.5474 48.8969 46.0312 48.2824 47.1251 47.1884C48.2191 46.0944 48.8337 44.6107 48.8337 43.0636V37.2303" stroke="#438E4D" stroke-width="3" stroke-linecap="round" stroke-linejoin="round"/>
</svg>
