<svg width="42" height="43" viewBox="0 0 42 43" fill="none" xmlns="http://www.w3.org/2000/svg">
<circle cx="21.0838" cy="21.4355" r="16.5657" fill="#CCCBCB"/>
<circle cx="21.0833" cy="21.4355" r="20.3884" stroke="#CCCBCB"/>
<g clip-path="url(#clip0_2025_1152)">
<path fill-rule="evenodd" clip-rule="evenodd" d="M14.8812 15.2332C14.9078 15.2067 14.9393 15.1857 14.9741 15.1714C15.0088 15.1571 15.046 15.1497 15.0835 15.1498H16.7978C17.0251 15.1498 17.2431 15.0595 17.4039 14.8988C17.5646 14.738 17.6549 14.52 17.6549 14.2927C17.6549 14.0653 17.5646 13.8473 17.4039 13.6866C17.2431 13.5258 17.0251 13.4355 16.7978 13.4355H15.0835C14.5531 13.4355 14.0444 13.6462 13.6693 14.0213C13.2942 14.3964 13.0835 14.9051 13.0835 15.4355V17.1498C13.0835 17.3771 13.1738 17.5951 13.3345 17.7559C13.4953 17.9166 13.7133 18.0069 13.9406 18.0069C14.168 18.0069 14.386 17.9166 14.5467 17.7559C14.7075 17.5951 14.7978 17.3771 14.7978 17.1498V15.4355C14.7977 15.398 14.805 15.3608 14.8194 15.3261C14.8337 15.2914 14.8547 15.2598 14.8812 15.2332ZM29.0835 25.7212C29.0835 25.4939 28.9932 25.2759 28.8324 25.1151C28.6717 24.9544 28.4537 24.8641 28.2264 24.8641C27.999 24.8641 27.781 24.9544 27.6203 25.1151C27.4595 25.2759 27.3692 25.4939 27.3692 25.7212V27.4355C27.3692 27.5113 27.3391 27.584 27.2855 27.6375C27.2319 27.6911 27.1593 27.7212 27.0835 27.7212H25.3692C25.1419 27.7212 24.9239 27.8115 24.7631 27.9723C24.6024 28.133 24.5121 28.351 24.5121 28.5784C24.5121 28.8057 24.6024 29.0237 24.7631 29.1845C24.9239 29.3452 25.1419 29.4355 25.3692 29.4355H27.0835C27.6139 29.4355 28.1226 29.2248 28.4977 28.8497C28.8728 28.4747 29.0835 27.966 29.0835 27.4355V25.7212ZM13.9406 24.8641C14.168 24.8641 14.386 24.9544 14.5467 25.1151C14.7075 25.2759 14.7978 25.4939 14.7978 25.7212V27.4355C14.7978 27.5113 14.8279 27.584 14.8815 27.6375C14.935 27.6911 15.0077 27.7212 15.0835 27.7212H16.7978C17.0251 27.7212 17.2431 27.8115 17.4039 27.9723C17.5646 28.133 17.6549 28.351 17.6549 28.5784C17.6549 28.8057 17.5646 29.0237 17.4039 29.1845C17.2431 29.3452 17.0251 29.4355 16.7978 29.4355H15.0835C14.5531 29.4355 14.0444 29.2248 13.6693 28.8497C13.2942 28.4747 13.0835 27.966 13.0835 27.4355V25.7212C13.0835 25.4939 13.1738 25.2759 13.3345 25.1151C13.4953 24.9544 13.7133 24.8641 13.9406 24.8641ZM25.3692 13.4355C25.1419 13.4355 24.9239 13.5258 24.7631 13.6866C24.6024 13.8473 24.5121 14.0653 24.5121 14.2927C24.5121 14.52 24.6024 14.738 24.7631 14.8988C24.9239 15.0595 25.1419 15.1498 25.3692 15.1498H27.0835C27.1593 15.1498 27.2319 15.1799 27.2855 15.2335C27.3391 15.2871 27.3692 15.3597 27.3692 15.4355V17.1498C27.3692 17.3771 27.4595 17.5951 27.6203 17.7559C27.781 17.9166 27.999 18.0069 28.2264 18.0069C28.4537 18.0069 28.6717 17.9166 28.8324 17.7559C28.9932 17.5951 29.0835 17.3771 29.0835 17.1498V15.4355C29.0835 14.9051 28.8728 14.3964 28.4977 14.0213C28.1226 13.6462 27.6139 13.4355 27.0835 13.4355H25.3692ZM21.0835 22.3224C20.0526 22.3223 19.0463 22.6375 18.1996 23.2256C17.3529 23.8137 16.7062 24.6466 16.3464 25.6127C16.2184 25.9544 16.4915 26.2927 16.8561 26.2927H25.3086C25.6744 26.2927 25.9464 25.9544 25.8195 25.6127C25.4596 24.6466 24.813 23.8137 23.9663 23.2256C23.1195 22.6375 22.1144 22.3223 21.0835 22.3224ZM23.6069 18.5338C23.6069 19.2038 23.3408 19.8464 22.867 20.3202C22.3932 20.7939 21.7507 21.0601 21.0806 21.0601C20.4106 21.0601 19.7681 20.7939 19.2943 20.3202C18.8205 19.8464 18.5544 19.2038 18.5544 18.5338C18.5544 17.8638 18.8205 17.2212 19.2943 16.7474C19.7681 16.2737 20.4106 16.0075 21.0806 16.0075C21.7507 16.0075 22.3932 16.2737 22.867 16.7474C23.3408 17.2212 23.6069 17.8638 23.6069 18.5338Z" fill="#726C6C"/>
</g>
<defs>
<clipPath id="clip0_2025_1152">
<rect width="16" height="16" fill="white" transform="translate(13.0835 13.4355)"/>
</clipPath>
</defs>
</svg>
