<svg width="20" height="21" viewBox="0 0 20 21" fill="none" xmlns="http://www.w3.org/2000/svg">
<g clip-path="url(#clip0_2001_805)">
<path d="M9.85724 9.65997C11.1808 9.65997 12.3269 9.18527 13.2633 8.24868C14.1997 7.31226 14.6744 6.16648 14.6744 4.84278C14.6744 3.51955 14.1997 2.37362 13.2632 1.43688C12.3266 0.500608 11.1806 0.0259094 9.85724 0.0259094C8.53354 0.0259094 7.38776 0.500608 6.45132 1.43704C5.51489 2.37346 5.04004 3.5194 5.04004 4.84278C5.04004 6.16648 5.51489 7.31241 6.45148 8.24884C7.38806 9.18511 8.534 9.65997 9.85724 9.65997Z" fill="#66C673"/>
<path d="M18.2863 15.4049C18.2593 15.0151 18.2047 14.59 18.1242 14.1411C18.0431 13.6889 17.9385 13.2613 17.8134 12.8705C17.6842 12.4666 17.5084 12.0678 17.2911 11.6855C17.0656 11.2888 16.8007 10.9434 16.5034 10.6591C16.1926 10.3617 15.8121 10.1226 15.372 9.94818C14.9335 9.77469 14.4475 9.6868 13.9276 9.6868C13.7234 9.6868 13.526 9.77057 13.1447 10.0188C12.91 10.1719 12.6355 10.3489 12.3291 10.5446C12.0671 10.7116 11.7122 10.868 11.2738 11.0096C10.8461 11.148 10.4118 11.2182 9.98322 11.2182C9.5546 11.2182 9.12048 11.148 8.69232 11.0096C8.25439 10.8681 7.89948 10.7117 7.63779 10.5448C7.33429 10.3509 7.05963 10.1739 6.82144 10.0187C6.44058 9.77042 6.24298 9.68665 6.03882 9.68665C5.5188 9.68665 5.03296 9.77469 4.59457 9.94833C4.15482 10.1224 3.77411 10.3615 3.46298 10.6592C3.16589 10.9437 2.90085 11.289 2.67563 11.6855C2.4585 12.0678 2.28271 12.4665 2.15332 12.8707C2.02835 13.2615 1.92383 13.6889 1.84265 14.1411C1.76224 14.5894 1.70761 15.0147 1.6806 15.4053C1.65405 15.788 1.64062 16.1852 1.64062 16.5863C1.64062 17.6303 1.9725 18.4755 2.62695 19.0988C3.27332 19.7139 4.12857 20.026 5.16861 20.026H14.7987C15.8388 20.026 16.6937 19.7141 17.3402 19.0988C17.9948 18.476 18.3267 17.6306 18.3267 16.5862C18.3266 16.1832 18.313 15.7857 18.2863 15.4049Z" fill="#66C673"/>
</g>
<defs>
<clipPath id="clip0_2001_805">
<rect width="20" height="20" fill="white" transform="translate(0 0.0259094)"/>
</clipPath>
</defs>
</svg>
