<svg width="16" height="16" viewBox="0 0 16 16" fill="none" xmlns="http://www.w3.org/2000/svg">
<path d="M1.38037 6.98639C1.16697 7.19862 0.997629 7.45093 0.882074 7.72883C0.766519 8.00672 0.707031 8.30472 0.707031 8.60568C0.707031 8.90665 0.766519 9.20464 0.882074 9.48254C0.997629 9.76044 1.16697 10.0127 1.38037 10.225L5.02407 13.8515C4.27045 12.5746 3.99036 11.0733 4.23291 9.61059C4.47546 8.14792 5.22516 6.81731 6.35057 5.85207C7.47598 4.88683 8.90525 4.34857 10.3878 4.33165C11.8703 4.31474 13.3115 4.82026 14.4587 5.75958L14.4782 3.19235C14.4794 2.8889 14.4204 2.58823 14.3047 2.30772C14.189 2.0272 14.0188 1.77243 13.8039 1.55812C13.5891 1.34382 13.3339 1.17424 13.0531 1.0592C12.7723 0.944167 12.4715 0.885952 12.168 0.887927L8.43825 0.903994C7.83148 0.90473 7.24969 1.1457 6.8201 1.5742L1.38037 6.98639ZM10.4615 15.807C11.1397 15.807 11.8112 15.6734 12.4378 15.4139C13.0644 15.1544 13.6337 14.774 14.1132 14.2944C14.5928 13.8149 14.9732 13.2456 15.2327 12.619C15.4922 11.9924 15.6258 11.3209 15.6258 10.6427C15.6258 9.96453 15.4922 9.29298 15.2327 8.66642C14.9732 8.03986 14.5928 7.47055 14.1132 6.991C13.6337 6.51145 13.0644 6.13105 12.4378 5.87152C11.8112 5.61199 11.1397 5.47841 10.4615 5.47841C9.09184 5.47841 7.77829 6.02251 6.80979 6.991C5.8413 7.9595 5.2972 9.27306 5.2972 10.6427C5.2972 12.0124 5.8413 13.3259 6.80979 14.2944C7.77829 15.2629 9.09184 15.807 10.4615 15.807ZM9.74424 13.5175C9.74424 13.3273 9.81981 13.1448 9.95432 13.0103C10.0888 12.8758 10.2713 12.8002 10.4615 12.8002C10.6517 12.8002 10.8342 12.8758 10.9687 13.0103C11.1032 13.1448 11.1788 13.3273 11.1788 13.5175C11.1788 13.7077 11.1032 13.8902 10.9687 14.0247C10.8342 14.1592 10.6517 14.2348 10.4615 14.2348C10.2713 14.2348 10.0888 14.1592 9.95432 14.0247C9.81981 13.8902 9.74424 13.7077 9.74424 13.5175ZM8.33496 9.44689C8.32234 8.14205 9.25879 7.20329 10.4615 7.20329C11.6447 7.20329 12.588 8.17418 12.588 9.44115C12.588 10.1137 12.3425 10.4832 11.7537 10.9549L11.4358 11.2005C11.1535 11.4231 11.0583 11.5447 11.0388 11.7146L11.0261 11.8936C11.0006 12.0347 10.9231 12.1611 10.809 12.248C10.6949 12.3348 10.5525 12.3758 10.4097 12.3629C10.2668 12.3499 10.1341 12.2839 10.0375 12.178C9.94086 12.072 9.88743 11.9337 9.88769 11.7903C9.88769 11.1362 10.1287 10.7758 10.7094 10.3122L11.0284 10.0655C11.3589 9.80151 11.4416 9.67297 11.4416 9.44115C11.4416 8.80078 11.0032 8.35091 10.4615 8.35091C9.89458 8.35091 9.47569 8.77094 9.48258 9.43541C9.4841 9.5876 9.42511 9.73415 9.31857 9.84284C9.21204 9.95153 9.06669 10.0134 8.91451 10.015C8.76232 10.0165 8.61577 9.95749 8.50708 9.85096C8.39839 9.74442 8.33648 9.59908 8.33496 9.44689Z" fill="#898384"/>
</svg>
